<svg version="1.0" xmlns="http://www.w3.org/2000/svg" width="154.000000ptpx" height="70.000000ptpx" viewBox="0 0 154.000000 70.000000" preserveAspectRatio="xMidYMid meet" transform="rotate(0) scale(1, 1)">

<g transform="translate(0.000000,70.000000) scale(0.100000,-0.100000)" fill="#646cff" stroke="none">
<path d="M294 614 c-184 -65 -239 -319 -99 -459 70 -70 184 -100 275 -73 58&#10;18 85 58 57 85 -14 15 -35 18 -110 18 -80 0 -96 3 -125 23 -82 59 -96 187 -29&#10;261 28 30 94 61 132 61 46 0 109 -34 140 -74 32 -43 44 -116 26 -167 -14 -40&#10;7 -79 43 -79 77 0 96 176 30 288 -27 46 -92 99 -147 119 -44 16 -144 14 -193&#10;-3z"/>
<path d="M732 518 c-8 -8 -12 -54 -12 -142 0 -150 13 -186 75 -212 65 -27 186&#10;-13 226 27 17 17 19 34 19 158 0 121 -2 142 -19 162 -16 21 -22 22 -45 11 -26&#10;-12 -26 -12 -26 -135 0 -82 -4 -127 -12 -135 -18 -18 -94 -15 -112 4 -13 12&#10;-16 39 -16 128 0 97 -3 115 -18 129 -22 20 -43 22 -60 5z"/>
<path d="M1098 519 c-16 -9 -18 -29 -18 -177 0 -173 4 -192 41 -192 43 0 49&#10;23 49 189 0 140 -2 160 -18 174 -21 19 -30 20 -54 6z"/>
<path d="M1232 511 c-8 -5 -12 -21 -10 -37 3 -29 3 -29 81 -32 42 -2 77 -6 77&#10;-10 0 -4 -38 -51 -85 -104 -92 -103 -103 -134 -63 -162 17 -12 49 -16 130 -16&#10;96 0 110 2 129 21 18 18 19 23 6 42 -12 19 -26 23 -92 27 l-77 5 86 98 c87&#10;100 103 136 74 165 -14 14 -235 17 -256 3z"/>
<path d="M597 152 c-38 -42 -11 -105 43 -105 38 0 60 23 60 63 0 53 -69 80&#10;-103 42z"/>
</g>
</svg>